<?xml version="1.0" encoding="UTF-8" standalone="no"?>
<svg xmlns="http://www.w3.org/2000/svg" width="100%" height="100%" viewBox="0 0 512 314" version="1.1">
  <path fill="#339933" d="M255.9,0c-7,0-13.8,1.8-19.8,5.3L87.4,96.4c-12.2,7-19.8,20-19.8,34v182.1c0,14,7.5,27,19.8,34l39.1,22.6c18.7,9.2,25.3,9.2,33.8,9.2c27.6,0,43.5-16.7,43.5-45.9V113.3c0-2.4-1.9-4.3-4.3-4.3h-19.6c-2.4,0-4.3,1.9-4.3,4.3v219.1c0,12.9-13.4,25.8-35.2,14.9l-40.8-23.6c-1.4-0.8-2.3-2.4-2.3-4V130.4c0-1.7,0.9-3.2,2.3-4l148.6-85.8c1.4-0.8,3.2-0.8,4.6,0l148.6,85.8c1.4,0.8,2.3,2.4,2.3,4v182.1c0,1.7-0.9,3.2-2.3,4L253.1,402.3c-1.4,0.8-3.2,0.8-4.6,0l-38.4-22.8c-1.1-0.7-2.6-0.8-3.8-0.2c-10.6,6-12.6,6.8-22.5,10.2c-2.5,0.9-6.3,2.2,1.4,6.4l50.2,29.7c6,3.5,12.8,5.3,19.8,5.3c7,0,13.8-1.8,19.8-5.3l148.6-85.8c12.2-7,19.8-20,19.8-34V130.4c0-14-7.5-27-19.8-34L275.7,5.3C269.7,1.8,262.9,0,255.9,0z"/>
  <path fill="#339933" d="M303.9,266.7c-39.4,0-47.7-9.1-50.5-27.1c-0.3-1.9-2-3.3-4-3.3h-20c-2.2,0-4,1.8-4,4c0,23.2,12.6,51,78.5,51c47,0,73.9-18.5,73.9-50.7c0-32-21.7-40.6-67.2-46.6c-46-6.1-50.5-9.2-50.5-20c0-8.9,4-20.8,38.1-20.8c30.5,0,41.8,6.6,46.4,27.1c0.4,1.8,2,3.1,3.9,3.1h20.1c1.1,0,2.2-0.5,3-1.3c0.8-0.9,1.2-2,1.1-3.2c-2.8-33.7-25.3-49.4-74.5-49.4c-42.6,0-68,18-68,48.2c0,32.7,25.3,41.8,66.2,45.9c48.9,4.9,51.5,12.2,51.5,22c0,17-13.7,24.3-45.9,24.3z"/>
</svg>